<?xml version="1.0" encoding="UTF-8" standalone="no"?>
<!-- Created with Inkscape (http://www.inkscape.org/) -->
<svg xmlns:inkscape="http://www.inkscape.org/namespaces/inkscape" xmlns:sodipodi="http://sodipodi.sourceforge.net/DTD/sodipodi-0.dtd" xmlns="http://www.w3.org/2000/svg" xmlns:svg="http://www.w3.org/2000/svg" version="1.1" id="svg2" width="1004.1067" height="764.58667" viewBox="0 0 1004.1067 764.58667" sodipodi:docname="I2-clr.eps">
  <defs id="defs6"></defs>
  <g id="g8" inkscape:groupmode="layer" inkscape:label="ink_ext_XXXXXX" transform="matrix(1.3333333,0,0,-1.3333333,0,764.58667)">
    <g id="g10" transform="scale(0.1)">
      <path d="m 2700.95,1736.04 c 425.68,773.41 694.04,1405.8 868.36,1873.69 v 771.19 l 262.57,-0.1 c 1.18,3.27 2.52,7.15 3.46,10.26 565.45,1675.87 -1149.92,1651.65 -1791.28,652.07 -56.56,-88.31 -66.69,-166.67 -10.79,-227.57 42.35,-46.38 111.8,-46.38 142.74,-11.64 909.65,1023.72 1558.98,652.19 1381.5,-34.74 -109.38,-423.2 -286.2,-885.2 -489.39,-1340.96 61.97,0 117.32,0 117.32,0 V 3128.49 H 2930.29 C 2403.6,2013.36 1768.18,995.941 1635.75,756.109 1512.19,532.07 1827.18,0 1827.18,0 c 991.5,1569.96 2687.78,2580.53 4607.77,2948.76 l 92.23,111.23 C 4508.87,2876.44 3432.52,2291.15 2700.95,1736.04" style="fill:#db3123;fill-opacity:1;fill-rule:nonzero;stroke:none" id="path12"></path>
      <path d="M 191.984,3198.23 V 4312.22 H 0 V 3198.23 h 191.984" style="fill:#231f20;fill-opacity:1;fill-rule:nonzero;stroke:none" id="path14"></path>
      <path d="M 1125.79,4312.22 V 3716 L 916.363,4312.22 H 711.508 L 710.883,3198.23 H 892.59 v 615.3 l 216.73,-615.3 h 198.33 v 1113.99 h -181.86" style="fill:#231f20;fill-opacity:1;fill-rule:nonzero;stroke:none" id="path16"></path>
      <path d="m 2255.19,4312.01 h -547.91 v -161.48 h 178.49 l -0.46,-952.62 h 191.82 v 952.62 h 178.06 v 161.48" style="fill:#231f20;fill-opacity:1;fill-rule:nonzero;stroke:none" id="path18"></path>
      <path d="m 2859.38,3359 v 358.56 h 233.1 v 161.39 h -233.1 v 271.41 l 247.96,-0.17 v 161.62 h -439.15 l -0.68,-1114.1 h 448.7 V 3359 h -256.83" style="fill:#231f20;fill-opacity:1;fill-rule:nonzero;stroke:none" id="path20"></path>
      <path d="M 5014.87,4312.22 V 3716 l -209.19,596.22 h -205.03 l -0.66,-1113.99 h 181.98 v 615.3 l 216.59,-615.3 h 198.43 v 1113.99 h -182.12" style="fill:#231f20;fill-opacity:1;fill-rule:nonzero;stroke:none" id="path22"></path>
      <path d="m 3926.18,4132.82 c -11.69,11.73 -29.47,17.37 -54.37,17.37 h -40.75 V 3880.5 h 16.38 c 66.24,0 105.9,54.41 106.3,145.49 0,52.04 -9.62,88.88 -27.56,106.83 z m 250.48,-935.44 h -181.83 l -60.47,317.63 c -22.96,125.28 -40.58,201.32 -87.86,201.32 h -15.44 v -518.81 h -192.82 l 0.7,1114.12 h 252.69 c 80.25,0 139.79,-20.69 182.12,-63.01 48.03,-48.05 71.36,-121.24 71.36,-223.34 0,-134.06 -45.78,-202.73 -98.24,-240.92 52.8,-57.77 65.67,-150.26 76.6,-228.64 l 53.19,-358.35" style="fill:#231f20;fill-opacity:1;fill-rule:nonzero;stroke:none" id="path24"></path>
      <path d="m 5881.27,3359 v 358.56 h 232.93 v 161.39 h -232.93 v 271.41 l 247.75,-0.17 v 161.62 h -439.08 l -0.67,-1114.1 h 448.76 V 3359 h -256.76" style="fill:#231f20;fill-opacity:1;fill-rule:nonzero;stroke:none" id="path26"></path>
      <path d="m 7070.43,4312.01 h -548.09 v -161.48 h 178.72 l -0.44,-952.62 h 191.86 l -0.56,952.62 h 178.51 v 161.48" style="fill:#231f20;fill-opacity:1;fill-rule:nonzero;stroke:none" id="path28"></path>
      <path d="m 7290.77,3420.88 h 26.19 c 30.14,0 55.44,10.95 55.44,39.16 0,20.02 -14.37,40.02 -55.44,40.02 -11.8,0 -19.9,-0.92 -26.19,-1.8 z m 0,-126.32 h -36.47 v 228.23 c 19.14,2.69 37.25,5.43 64.58,5.43 34.55,0 57.36,-7.25 70.87,-17.27 13.7,-9.95 21.04,-25.51 21.04,-47.26 0,-30.03 -20.04,-48.25 -44.57,-55.5 v -1.8 c 19.93,-3.75 33.64,-21.8 38.25,-55.49 5.18,-35.53 10.78,-49.13 14.28,-56.34 h -38.11 c -5.51,7.21 -10.92,28.19 -15.43,58.17 -5.4,29.02 -19.88,39.91 -49.13,39.91 h -25.31 z m 38.11,291.86 c -89.96,0 -163.77,-77.33 -163.77,-172.85 0,-97.25 73.81,-173.56 164.78,-173.56 90.77,-1.01 163.66,76.31 163.66,172.7 0,96.38 -72.89,173.71 -163.66,173.71 z m 1.01,31.82 c 111.81,0 200.88,-90.94 200.88,-204.67 0,-115.46 -89.07,-205.5 -201.89,-205.5 -111.9,0 -202.89,90.04 -202.89,205.5 0,113.73 90.99,204.67 202.89,204.67 h 1.01" style="fill:#231f20;fill-opacity:1;fill-rule:nonzero;stroke:none" id="path30"></path>
    </g>
  </g>
</svg>
